<svg xmlns="http://www.w3.org/2000/svg" width="75" height="11" viewBox="0 0 75 11" fill="none">
<path d="M0 10.7628L2.87394 0.237196H4.89468L7.76863 10.7628H5.99487L5.4111 8.52426H2.34631L1.76254 10.7628H0ZM2.82904 6.67116H4.93959L3.88431 2.60916L2.82904 6.67116Z" fill="#0F0F0E"/>
<path d="M9.33478 10.7628V0.237196H11.2208L14.3866 7.50135V0.237196H16.093V10.7628H14.1846L11.0412 3.75067V10.7628H9.33478Z" fill="#0F0F0E"/>
<path d="M19.9112 10.7628V2.13477H17.5312V0.237196H24.02V2.13477H21.6288V10.7628H19.9112Z" fill="#0F0F0E"/>
<path d="M28.4659 11C27.7774 11 27.1861 10.8468 26.6922 10.5404C26.1982 10.2341 25.8128 9.80413 25.5359 9.25067C25.2589 8.69721 25.1018 8.04492 25.0643 7.2938L26.782 7.19003C26.8269 7.60512 26.9167 7.96092 27.0514 8.25741C27.1936 8.54402 27.3807 8.76146 27.6127 8.9097C27.8522 9.05795 28.1441 9.13207 28.4884 9.13207C28.7728 9.13207 29.0123 9.0876 29.2069 8.99865C29.4089 8.9097 29.5624 8.77628 29.6671 8.59838C29.7719 8.4106 29.8243 8.18329 29.8243 7.91644C29.8243 7.66936 29.7794 7.45687 29.6896 7.27898C29.5998 7.09119 29.4277 6.92318 29.1732 6.77493C28.9187 6.6168 28.5445 6.46361 28.0506 6.31536C27.3695 6.10782 26.8194 5.87556 26.4003 5.6186C25.9886 5.36163 25.6893 5.04043 25.5022 4.65499C25.3151 4.25966 25.2215 3.7655 25.2215 3.17251C25.2215 2.53998 25.3375 1.98652 25.5695 1.51213C25.809 1.03774 26.1533 0.667115 26.6024 0.400269C27.0514 0.133423 27.5865 0 28.2077 0C28.8663 0 29.4239 0.153189 29.8804 0.459568C30.337 0.765947 30.6925 1.18598 30.947 1.71968C31.2089 2.25337 31.3661 2.86613 31.4185 3.55795L29.7121 3.67655C29.6896 3.31087 29.6148 2.99461 29.4875 2.72776C29.3603 2.45103 29.1882 2.23854 28.9711 2.0903C28.7541 1.94205 28.4921 1.86792 28.1853 1.86792C27.7961 1.86792 27.4892 1.98158 27.2647 2.20889C27.0477 2.43621 26.9391 2.7327 26.9391 3.09838C26.9391 3.35535 26.9878 3.57278 27.0851 3.75067C27.1899 3.91869 27.3583 4.06694 27.5903 4.19542C27.8298 4.3239 28.1666 4.44744 28.6006 4.56604C29.3416 4.7637 29.9254 5.01572 30.352 5.3221C30.786 5.6186 31.0929 5.97439 31.2725 6.38949C31.4521 6.80458 31.5419 7.27897 31.5419 7.81267C31.5419 8.46496 31.4147 9.03324 31.1602 9.51752C30.9133 9.99191 30.5578 10.3576 30.0937 10.6146C29.6372 10.8715 29.0946 11 28.4659 11Z" fill="#1FD87A"/>
<path d="M34.9778 10.7628V2.13477H32.5978V0.237196H39.0866V2.13477H36.6954V10.7628H34.9778Z" fill="#1FD87A"/>
<path d="M39.0917 10.7628L41.9657 0.237196H43.9864L46.8604 10.7628H45.0866L44.5028 8.52426H41.438L40.8543 10.7628H39.0917ZM41.9208 6.67116H44.0313L42.976 2.60916L41.9208 6.67116Z" fill="#1FD87A"/>
<path d="M49.266 10.7628V2.13477H46.886V0.237196H53.3749V2.13477H50.9837V10.7628H49.266Z" fill="#1FD87A"/>
<path d="M54.9073 10.7628V0.237196H56.6137V10.7628H54.9073Z" fill="#1FD87A"/>
<path d="M62.4246 11C61.6163 11 60.9202 10.7776 60.3365 10.3329C59.7602 9.88814 59.3149 9.25562 59.0006 8.43531C58.6937 7.615 58.5403 6.64151 58.5403 5.51482C58.5403 4.38814 58.6937 3.41464 59.0006 2.59434C59.3149 1.76415 59.7602 1.12668 60.3365 0.681941C60.9202 0.227314 61.6163 0 62.4246 0C63.2329 0 63.9252 0.227314 64.5015 0.681941C65.0852 1.12668 65.5305 1.76415 65.8374 2.59434C66.1517 3.41464 66.3089 4.38814 66.3089 5.51482C66.3089 6.64151 66.1517 7.615 65.8374 8.43531C65.5305 9.25562 65.0852 9.88814 64.5015 10.3329C63.9252 10.7776 63.2329 11 62.4246 11ZM62.4134 9.10243C62.8624 9.10243 63.2441 8.96406 63.5584 8.68733C63.8803 8.40072 64.1235 7.99057 64.2882 7.45687C64.4603 6.92318 64.5464 6.27583 64.5464 5.51482C64.5464 4.75382 64.4603 4.10647 64.2882 3.57278C64.1235 3.0292 63.8803 2.61411 63.5584 2.32749C63.2441 2.04088 62.8624 1.89757 62.4134 1.89757C61.9718 1.89757 61.5938 2.04088 61.2795 2.32749C60.9652 2.61411 60.7219 3.0292 60.5498 3.57278C60.3851 4.10647 60.3028 4.75382 60.3028 5.51482C60.3028 6.27583 60.3851 6.92318 60.5498 7.45687C60.7219 7.99057 60.9652 8.40072 61.2795 8.68733C61.6013 8.96406 61.9793 9.10243 62.4134 9.10243Z" fill="#1FD87A"/>
<path d="M68.2417 10.7628V0.237196H70.1278L73.2936 7.50135V0.237196H75V10.7628H73.0915L69.9481 3.75067V10.7628H68.2417Z" fill="#1FD87A"/>
</svg>