<svg width="92" height="28" viewBox="0 0 92 28" fill="none" xmlns="http://www.w3.org/2000/svg">
<path d="M14 9.62502C14.9665 9.62502 15.75 8.76317 15.75 7.70002C15.75 6.63688 14.9665 5.77502 14 5.77502C13.0335 5.77502 12.25 6.63688 12.25 7.70002C12.25 8.76317 13.0335 9.62502 14 9.62502Z" fill="#1FD87A"/>
<path d="M13.9998 15.4C15.3529 15.4 16.4498 14.1464 16.4498 12.6C16.4498 11.0537 15.3529 9.80005 13.9998 9.80005C12.6467 9.80005 11.5498 11.0537 11.5498 12.6C11.5498 14.1464 12.6467 15.4 13.9998 15.4Z" fill="#1FD87A"/>
<path d="M14.0001 23.45C15.7398 23.45 17.1501 21.5696 17.1501 19.25C17.1501 16.9305 15.7398 15.05 14.0001 15.05C12.2604 15.05 10.8501 16.9305 10.8501 19.25C10.8501 21.5696 12.2604 23.45 14.0001 23.45Z" fill="#1FD87A"/>
<path opacity="0.7" d="M12.9498 5.94998L9.7998 2.09998" stroke="#1FD87A" stroke-width="0.6" stroke-linecap="round"/>
<path opacity="0.7" d="M15.0498 5.94998L18.1998 2.09998" stroke="#1FD87A" stroke-width="0.6" stroke-linecap="round"/>
<path d="M9.7998 2.97498C10.283 2.97498 10.6748 2.58322 10.6748 2.09998C10.6748 1.61673 10.283 1.22498 9.7998 1.22498C9.31655 1.22498 8.9248 1.61673 8.9248 2.09998C8.9248 2.58322 9.31655 2.97498 9.7998 2.97498Z" fill="#1FD87A"/>
<path d="M18.2002 2.97498C18.6835 2.97498 19.0752 2.58322 19.0752 2.09998C19.0752 1.61673 18.6835 1.22498 18.2002 1.22498C17.717 1.22498 17.3252 1.61673 17.3252 2.09998C17.3252 2.58322 17.717 2.97498 18.2002 2.97498Z" fill="#1FD87A"/>
<path opacity="0.5" d="M12.25 11.2001L6.125 7.70007" stroke="#1FD87A" stroke-width="0.52" stroke-linecap="round"/>
<path opacity="0.5" d="M15.75 11.2001L21.875 7.70007" stroke="#1FD87A" stroke-width="0.52" stroke-linecap="round"/>
<path d="M6.2998 8.57495C6.78305 8.57495 7.1748 8.1832 7.1748 7.69995C7.1748 7.2167 6.78305 6.82495 6.2998 6.82495C5.81655 6.82495 5.4248 7.2167 5.4248 7.69995C5.4248 8.1832 5.81655 8.57495 6.2998 8.57495Z" fill="#1FD87A"/>
<path d="M21.7002 8.57495C22.1835 8.57495 22.5752 8.1832 22.5752 7.69995C22.5752 7.2167 22.1835 6.82495 21.7002 6.82495C21.217 6.82495 20.8252 7.2167 20.8252 7.69995C20.8252 8.1832 21.217 8.57495 21.7002 8.57495Z" fill="#1FD87A"/>
<path opacity="0.5" d="M11.5499 13.3L4.8999 14" stroke="#1FD87A" stroke-width="0.52" stroke-linecap="round"/>
<path opacity="0.5" d="M16.4502 13.3L23.1002 14" stroke="#1FD87A" stroke-width="0.52" stroke-linecap="round"/>
<path d="M4.8999 14.875C5.38315 14.875 5.7749 14.4832 5.7749 14C5.7749 13.5168 5.38315 13.125 4.8999 13.125C4.41666 13.125 4.0249 13.5168 4.0249 14C4.0249 14.4832 4.41666 14.875 4.8999 14.875Z" fill="#1FD87A"/>
<path d="M23.1001 14.875C23.5833 14.875 23.9751 14.4832 23.9751 14C23.9751 13.5168 23.5833 13.125 23.1001 13.125C22.6168 13.125 22.2251 13.5168 22.2251 14C22.2251 14.4832 22.6168 14.875 23.1001 14.875Z" fill="#1FD87A"/>
<path opacity="0.5" d="M11.9001 18.2L5.6001 21" stroke="#1FD87A" stroke-width="0.52" stroke-linecap="round"/>
<path opacity="0.5" d="M16.1001 18.2L22.4001 21" stroke="#1FD87A" stroke-width="0.52" stroke-linecap="round"/>
<path d="M5.6001 21.875C6.08334 21.875 6.4751 21.4832 6.4751 21C6.4751 20.5168 6.08334 20.125 5.6001 20.125C5.11685 20.125 4.7251 20.5168 4.7251 21C4.7251 21.4832 5.11685 21.875 5.6001 21.875Z" fill="#1FD87A"/>
<path d="M22.3999 21.875C22.8832 21.875 23.2749 21.4832 23.2749 21C23.2749 20.5168 22.8832 20.125 22.3999 20.125C21.9167 20.125 21.5249 20.5168 21.5249 21C21.5249 21.4832 21.9167 21.875 22.3999 21.875Z" fill="#1FD87A"/>
<path opacity="0.15" d="M6.2999 7.69995L4.8999 14" stroke="#1FD87A" stroke-width="0.52" stroke-linecap="round"/>
<path opacity="0.15" d="M21.7002 7.69995L23.1002 14" stroke="#1FD87A" stroke-width="0.52" stroke-linecap="round"/>
<path opacity="0.15" d="M4.8999 14L5.5999 21" stroke="#1FD87A" stroke-width="0.52" stroke-linecap="round"/>
<path opacity="0.15" d="M23.0999 14L22.3999 21" stroke="#1FD87A" stroke-width="0.52" stroke-linecap="round"/>
<path d="M32.5249 19L35.2849 8.05H37.6999L40.4749 19H38.5549L37.9549 16.345H35.0449L34.4449 19H32.5249ZM35.3899 14.815H37.6099L36.9499 11.875C36.8399 11.385 36.7449 10.945 36.6649 10.555C36.5849 10.155 36.5299 9.865 36.4999 9.685C36.4699 9.865 36.4149 10.155 36.3349 10.555C36.2649 10.945 36.1699 11.38 36.0499 11.86L35.3899 14.815ZM41.474 19V8.05H43.769L46.814 16.9C46.784 16.58 46.749 16.205 46.709 15.775C46.679 15.335 46.654 14.89 46.634 14.44C46.614 13.98 46.604 13.58 46.604 13.24V8.05H48.314V19H46.019L43.004 10.15C43.024 10.44 43.049 10.79 43.079 11.2C43.109 11.61 43.134 12.03 43.154 12.46C43.174 12.89 43.184 13.285 43.184 13.645V19H41.474ZM52.3432 19V9.79H49.4782V8.05H57.0982V9.79H54.2332V19H52.3432Z" fill="currentColor"/>
<path d="M61.675 18.75C60.925 18.75 60.275 18.625 59.725 18.375C59.175 18.125 58.75 17.77 58.45 17.31C58.16 16.84 58.01 16.29 58 15.66H59.875C59.875 16.11 60.035 16.465 60.355 16.725C60.685 16.975 61.13 17.1 61.69 17.1C62.23 17.1 62.65 16.975 62.95 16.725C63.26 16.475 63.415 16.13 63.415 15.69C63.415 15.32 63.305 15 63.085 14.73C62.875 14.45 62.57 14.26 62.17 14.16L60.91 13.815C60.05 13.595 59.385 13.2 58.915 12.63C58.455 12.06 58.225 11.37 58.225 10.56C58.225 9.94 58.365 9.4 58.645 8.94C58.925 8.48 59.32 8.125 59.83 7.875C60.35 7.625 60.96 7.5 61.66 7.5C62.72 7.5 63.56 7.775 64.18 8.325C64.8 8.865 65.115 9.595 65.125 10.515H63.25C63.25 10.085 63.11 9.75 62.83 9.51C62.55 9.26 62.155 9.135 61.645 9.135C61.155 9.135 60.775 9.25 60.505 9.48C60.235 9.71 60.1 10.035 60.1 10.455C60.1 10.835 60.2 11.16 60.4 11.43C60.61 11.69 60.91 11.875 61.3 11.985L62.605 12.345C63.475 12.565 64.14 12.96 64.6 13.53C65.06 14.09 65.29 14.785 65.29 15.615C65.29 16.235 65.14 16.785 64.84 17.265C64.54 17.735 64.12 18.1 63.58 18.36C63.04 18.62 62.405 18.75 61.675 18.75ZM66.8592 18.6V7.65H73.4292V9.285H68.7042V12.135H72.9042V13.755H68.7042V16.965H73.4292V18.6H66.8592ZM75.2533 18.6V7.65H81.8233V9.285H77.0983V12.135H81.2983V13.755H77.0983V16.965H81.8233V18.6H75.2533ZM83.4524 18.6V7.65H86.7074C87.4474 7.65 88.0874 7.79 88.6274 8.07C89.1774 8.35 89.6024 8.745 89.9024 9.255C90.2024 9.765 90.3524 10.37 90.3524 11.07V15.165C90.3524 15.855 90.2024 16.46 89.9024 16.98C89.6024 17.49 89.1774 17.89 88.6274 18.18C88.0874 18.46 87.4474 18.6 86.7074 18.6H83.4524ZM85.3274 16.875H86.7074C87.2474 16.875 87.6774 16.725 87.9974 16.425C88.3174 16.115 88.4774 15.695 88.4774 15.165V11.07C88.4774 10.55 88.3174 10.14 87.9974 9.84C87.6774 9.53 87.2474 9.375 86.7074 9.375H85.3274V16.875Z" fill="#1FD87A"/>
</svg>
