<svg width="800" height="450" viewBox="0 0 800 450" fill="none" xmlns="http://www.w3.org/2000/svg">
<defs>
<pattern id="dg" width="22" height="22" patternUnits="userSpaceOnUse"><circle cx="1.5" cy="1.5" r="1.3" fill="rgba(0,30,18,0.06)"/></pattern>
<radialGradient id="glow" cx="0.5" cy="0.5" r="0.5"><stop offset="0" stop-color="rgba(16,185,129,0.10)"/><stop offset="1" stop-color="rgba(16,185,129,0)"/></radialGradient>
</defs>
<rect width="800" height="450" fill="#F4F5F4"/>
<rect width="800" height="450" fill="url(#dg)"/>
<ellipse cx="400" cy="225" rx="280" ry="170" fill="url(#glow)"/>

<path d="M400 145 A80 80 0 0 1 480 225" stroke="#001E12" stroke-width="3" stroke-linecap="round"/>
<path d="M400 145 A80 80 0 0 0 320 225 A80 80 0 0 0 348 286" stroke="#001E12" stroke-width="3" stroke-linecap="round"/>
<path d="M400 175 A50 50 0 0 1 450 225 A50 50 0 0 1 428 266" stroke="#10B981" stroke-width="3" stroke-linecap="round"/>
<path d="M400 175 A50 50 0 0 0 350 225" stroke="#001E12" stroke-width="3" stroke-linecap="round"/>
<path d="M400 205 A20 20 0 0 1 420 225 A20 20 0 0 1 400 245" stroke="#001E12" stroke-width="3" stroke-linecap="round"/>
<path d="M400 115 A110 110 0 0 1 510 225" stroke="rgba(16,185,129,0.35)" stroke-width="3" stroke-linecap="round"/>
<path d="M400 115 A110 110 0 0 0 290 225 A110 110 0 0 0 316 296" stroke="rgba(16,185,129,0.35)" stroke-width="3" stroke-linecap="round"/>
<circle cx="487" cy="305" r="28" fill="#10B981"/>
<path d="M474 305 L484 315 L502 295" stroke="#FFFFFF" stroke-width="4" stroke-linecap="round" stroke-linejoin="round"/>
</svg>