<svg width="800" height="450" viewBox="0 0 800 450" fill="none" xmlns="http://www.w3.org/2000/svg">
<defs>
<pattern id="dg" width="22" height="22" patternUnits="userSpaceOnUse"><circle cx="1.5" cy="1.5" r="1.3" fill="rgba(0,30,18,0.06)"/></pattern>
<radialGradient id="glow" cx="0.5" cy="0.5" r="0.5"><stop offset="0" stop-color="rgba(16,185,129,0.10)"/><stop offset="1" stop-color="rgba(16,185,129,0)"/></radialGradient>
</defs>
<rect width="800" height="450" fill="#F4F5F4"/>
<rect width="800" height="450" fill="url(#dg)"/>
<ellipse cx="400" cy="225" rx="280" ry="170" fill="url(#glow)"/>

<rect x="300" y="85" width="200" height="264" rx="16" fill="#FFFFFF" stroke="#001E12" stroke-width="3"/>
<line x1="328" y1="135" x2="472" y2="135" stroke="rgba(0,30,18,0.25)" stroke-width="3" stroke-linecap="round"/>
<line x1="328" y1="167" x2="472" y2="167" stroke="rgba(0,30,18,0.25)" stroke-width="3" stroke-linecap="round"/>
<line x1="328" y1="199" x2="430" y2="199" stroke="rgba(0,30,18,0.25)" stroke-width="3" stroke-linecap="round"/>
<path d="M330 268 C348 250 356 282 372 264 C388 246 396 278 414 262" stroke="#10B981" stroke-width="3.5" stroke-linecap="round" fill="none"/>
<circle cx="484" cy="330" r="30" fill="#10B981"/>
<circle cx="484" cy="330" r="30" stroke="#FFFFFF" stroke-width="0"/>
<path d="M470 330 L480 340 L499 319" stroke="#FFFFFF" stroke-width="4" stroke-linecap="round" stroke-linejoin="round"/>
</svg>