<svg width="800" height="450" viewBox="0 0 800 450" fill="none" xmlns="http://www.w3.org/2000/svg">
<defs>
<pattern id="dg" width="22" height="22" patternUnits="userSpaceOnUse"><circle cx="1.5" cy="1.5" r="1.3" fill="rgba(0,30,18,0.06)"/></pattern>
<radialGradient id="glow" cx="0.5" cy="0.5" r="0.5"><stop offset="0" stop-color="rgba(16,185,129,0.10)"/><stop offset="1" stop-color="rgba(16,185,129,0)"/></radialGradient>
</defs>
<rect width="800" height="450" fill="#F4F5F4"/>
<rect width="800" height="450" fill="url(#dg)"/>
<ellipse cx="400" cy="225" rx="280" ry="170" fill="url(#glow)"/>

<path d="M318 205 L482 205" stroke="#001E12" stroke-width="3" stroke-linecap="round"/>
<path d="M344 205 C344 156 366 128 400 128 C434 128 456 156 456 205" fill="rgba(16,185,129,0.12)" stroke="#001E12" stroke-width="3"/>
<path d="M344 178 L456 178" stroke="#001E12" stroke-width="3" stroke-linecap="round"/>
<circle cx="362" cy="270" r="32" fill="#FFFFFF" stroke="#001E12" stroke-width="3"/>
<circle cx="438" cy="270" r="32" fill="#FFFFFF" stroke="#001E12" stroke-width="3"/>
<path d="M394 270 C398 264 402 264 406 270" stroke="#001E12" stroke-width="3" stroke-linecap="round" fill="none"/>
<circle cx="362" cy="270" r="12" fill="#10B981"/>
<circle cx="438" cy="270" r="12" fill="#10B981"/>
<circle cx="296" cy="330" r="4" fill="rgba(16,185,129,0.35)"/><circle cx="504" cy="330" r="4" fill="rgba(16,185,129,0.35)"/>
<circle cx="276" cy="180" r="4" fill="rgba(16,185,129,0.35)"/><circle cx="524" cy="180" r="4" fill="rgba(16,185,129,0.35)"/>
</svg>