<svg xmlns="http://www.w3.org/2000/svg" viewBox="0 0 40 40">
  <rect width="40" height="40" rx="8" fill="#181818"/>
  <path d="M28.6 17.2c.5-1.5.3-3.2-.6-4.5a5.1 5.1 0 00-5.5-2.2 5.1 5.1 0 00-3.8-1.7 5.2 5.2 0 00-4.9 3.5 5.1 5.1 0 00-3.4 2.5 5.2 5.2 0 00.6 5.7c-.5 1.5-.3 3.2.6 4.5a5.1 5.1 0 005.5 2.2c1 1.1 2.4 1.7 3.8 1.7a5.2 5.2 0 005-3.5 5.1 5.1 0 003.4-2.5 5.2 5.2 0 00-.7-5.7zm-7.7 11.5c-1 0-2-.3-2.7-1l.1-.1 4.5-2.6a.7.7 0 00.4-.6v-6.3l1.9 1.1v5.3a3.9 3.9 0 01-4.2 4.2zm-9-3.6a3.8 3.8 0 01-.5-2.6l.2.1 4.5 2.6a.7.7 0 00.7 0l5.4-3.1v2.2l-4.5 2.6a3.9 3.9 0 01-5.3-1.4l-.5-.4zm-1.2-9.2a3.9 3.9 0 012-1.7v5.4a.7.7 0 00.4.6l5.4 3.1-1.9 1.1-4.5-2.6a3.9 3.9 0 01-1.4-5.3v-.6zm15.4 3.6l-5.4-3.1 1.9-1.1 4.5 2.6a3.9 3.9 0 01-.1 6.8v-5.4l-.1-.2a.7.7 0 00-.3-.3l-.5-.3zm1.9-2.7l-.2-.1-4.5-2.6a.7.7 0 00-.7 0l-5.4 3.1v-2.2l4.5-2.6a3.9 3.9 0 015.8 4l.5.4zm-12 3.8l-1.9-1.1v-5.3a3.9 3.9 0 016.4-3l-.1.1-4.5 2.6a.7.7 0 00-.4.6l.5 6.1zm1-2.2l2.4-1.4 2.4 1.4v2.7L20 22.5l-2.4-1.4-.5-2.7z" fill="#10A37F"/>
</svg>
