<svg width="103" height="24" viewBox="0 0 103 24" fill="none" xmlns="http://www.w3.org/2000/svg">
<path fill-rule="evenodd" clip-rule="evenodd" d="M38.337 2.64099H42.089L48.469 14.211L54.849 2.64099H58.52V21.652H55.46V7.08199L49.866 17.172H46.994L41.399 7.08199V21.652H38.339V2.64199L38.337 2.64099ZM68.395 21.994C66.977 21.994 65.731 21.68 64.656 21.05C63.5905 20.4306 62.7199 19.525 62.143 18.436C61.543 17.323 61.243 16.046 61.243 14.607C61.243 13.15 61.536 11.859 62.123 10.737C62.71 9.61399 63.525 8.73699 64.568 8.10199C65.611 7.46899 66.81 7.15199 68.164 7.15199C69.51 7.15199 70.668 7.47099 71.639 8.10899C72.609 8.74699 73.357 9.64099 73.881 10.791C74.404 11.941 74.666 13.29 74.666 14.838V15.68H64.276C64.466 16.839 64.934 17.75 65.679 18.416C66.424 19.081 67.365 19.414 68.503 19.414C69.415 19.414 70.201 19.278 70.86 19.007C71.5505 18.7146 72.1801 18.2954 72.716 17.771L74.341 19.767C72.725 21.252 70.742 21.994 68.395 21.994ZM70.63 10.716C69.988 10.06 69.149 9.73199 68.11 9.73199C67.099 9.73199 66.252 10.067 65.57 10.737C64.889 11.407 64.457 12.307 64.277 13.439H71.727C71.637 12.28 71.271 11.373 70.63 10.716ZM78.378 10.004H75.561V7.49199H78.378V3.33699H81.331V7.49199H85.611V10.004H81.331V16.373C81.331 17.432 81.511 18.188 81.873 18.64C82.233 19.093 82.853 19.32 83.728 19.32C84.117 19.32 84.446 19.304 84.718 19.272L85.144 19.216C85.294 19.194 85.449 19.17 85.611 19.143V21.628C84.8136 21.8553 83.9882 21.9697 83.159 21.968C79.972 21.968 78.378 20.22 78.378 16.726V10.004ZM101 21.654H98.101V19.672C97.6017 20.4011 96.9261 20.9921 96.137 21.39C95.342 21.793 94.439 21.994 93.427 21.994C92.182 21.994 91.077 21.675 90.116 21.037C89.154 20.399 88.398 19.52 87.847 18.402C87.297 17.284 87.021 16.006 87.021 14.566C87.021 13.118 87.301 11.836 87.861 10.723C88.421 9.60999 89.195 8.73599 90.184 8.10299C91.173 7.46899 92.308 7.15199 93.59 7.15199C94.557 7.15199 95.424 7.33999 96.191 7.71499C96.9487 8.08265 97.6046 8.63069 98.101 9.31099V7.48999H101V21.654ZM98.047 12.448C97.731 11.642 97.232 11.006 96.55 10.54C95.868 10.074 95.08 9.83999 94.187 9.83999C92.922 9.83999 91.915 10.266 91.166 11.117C90.416 11.968 90.041 13.117 90.042 14.567C90.042 16.024 90.402 17.178 91.125 18.029C91.847 18.88 92.827 19.305 94.065 19.305C94.976 19.305 95.789 19.07 96.503 18.599C97.2042 18.1433 97.7443 17.4786 98.047 16.699V12.448Z" fill="white"/>
<path fill-rule="evenodd" clip-rule="evenodd" d="M10.627 2H10.598L10.558 5.27L10.586 5.269C12.732 5.269 14.396 6.965 18.016 13.076L18.236 13.448L18.25 13.472L20.276 10.425L20.262 10.402C19.819 9.67717 19.3609 8.96168 18.888 8.256C18.4225 7.55997 17.9322 6.88087 17.418 6.22C15.026 3.165 13.024 2 10.628 2H10.627Z" fill="url(#paint0_linear_6_45)"/>
<path fill-rule="evenodd" clip-rule="evenodd" d="M10.598 2C8.19 2.013 6.062 3.573 4.525 5.961C4.52065 5.96799 4.51632 5.97499 4.512 5.982L7.332 7.522L7.347 7.5C8.244 6.146 9.361 5.282 10.558 5.27L10.585 5.269L10.627 2H10.598Z" fill="url(#paint1_linear_6_45)"/>
<path fill-rule="evenodd" clip-rule="evenodd" d="M4.525 5.96301L4.512 5.98301C3.502 7.56001 2.749 9.49401 2.342 11.58L2.337 11.607L5.507 12.357C5.507 12.347 5.509 12.339 5.511 12.329C5.85 10.496 6.495 8.79601 7.333 7.52301L7.346 7.50301L4.525 5.96301Z" fill="url(#paint2_linear_6_45)"/>
<path fill-rule="evenodd" clip-rule="evenodd" d="M5.511 12.33L2.342 11.582L2.337 11.609C2.11524 12.7561 2.0024 13.9216 2 15.09L2 15.118L5.25 15.41V15.381C5.23795 14.3582 5.3257 13.3367 5.512 12.331L5.511 12.33Z" fill="url(#paint3_linear_6_45)"/>
<path fill-rule="evenodd" clip-rule="evenodd" d="M5.349 16.422C5.29062 16.086 5.25753 15.746 5.25 15.405V15.377L2 15.085V15.116C1.99654 15.8082 2.05781 16.4992 2.183 17.18L5.353 16.449C5.35164 16.44 5.35031 16.431 5.349 16.422Z" fill="url(#paint4_linear_6_45)"/>
<path fill-rule="evenodd" clip-rule="evenodd" d="M6.09 18.112C5.736 17.725 5.485 17.167 5.354 16.453L5.349 16.426L2.178 17.157L2.183 17.184C2.423 18.446 2.893 19.497 3.566 20.292L3.584 20.314L6.108 18.133C6.10163 18.1264 6.0953 18.1197 6.089 18.113L6.09 18.112Z" fill="url(#paint5_linear_6_45)"/>
<path fill-rule="evenodd" clip-rule="evenodd" d="M15.484 9.06702C14.4497 10.6534 13.4267 12.2471 12.415 13.848C9.87 17.848 8.989 18.745 7.572 18.745C6.981 18.745 6.487 18.534 6.108 18.13C6.10163 18.1234 6.0953 18.1167 6.089 18.11L3.566 20.29L3.584 20.311C4.514 21.397 5.825 22 7.448 22C9.904 22 11.67 20.84 14.809 15.338L17.019 11.425C16.5289 10.6252 16.017 9.83892 15.484 9.06702Z" fill="#0082FB"/>
<path fill-rule="evenodd" clip-rule="evenodd" d="M18.89 4.43201C18.365 4.99933 17.8738 5.59703 17.419 6.22201C17.891 6.82601 18.379 7.50301 18.889 8.26001C19.489 7.33001 20.049 6.57801 20.599 6.00201L20.618 5.98201L18.89 4.43201Z" fill="url(#paint6_linear_6_45)"/>
<path fill-rule="evenodd" clip-rule="evenodd" d="M28.166 4.142C26.834 2.792 25.245 2 23.546 2C21.756 2 20.249 2.984 18.89 4.43C18.8833 4.43665 18.8766 4.44332 18.87 4.45L20.6 6L20.619 5.979C21.514 5.045 22.381 4.579 23.341 4.579C24.375 4.579 25.342 5.067 26.181 5.922L26.2 5.942L28.187 4.162L28.166 4.142Z" fill="#0082FB"/>
<path fill-rule="evenodd" clip-rule="evenodd" d="M32.019 14.656C31.944 10.323 30.431 6.44899 28.186 4.16099L28.166 4.14099L26.179 5.92099L26.199 5.94099C27.888 7.68099 29.047 10.916 29.152 14.655V14.683L32.019 14.684V14.656Z" fill="url(#paint7_linear_6_45)"/>
<path fill-rule="evenodd" clip-rule="evenodd" d="M32.02 14.687L32.019 14.659H29.152V14.686C29.157 14.862 29.16 15.038 29.16 15.216C29.16 16.236 29.008 17.059 28.699 17.654L28.685 17.681L30.822 19.909L30.838 19.885C31.614 18.685 32.021 17.017 32.021 14.995C32.021 14.892 32.021 14.79 32.019 14.687H32.02Z" fill="url(#paint8_linear_6_45)"/>
<path fill-rule="evenodd" clip-rule="evenodd" d="M28.7 17.65L28.685 17.676C28.418 18.178 28.036 18.512 27.538 18.658L28.512 21.737C28.6993 21.6732 28.8821 21.5966 29.059 21.508C29.7516 21.1584 30.3408 20.6337 30.768 19.986C30.7866 19.9592 30.805 19.9322 30.823 19.905L30.838 19.88L28.699 17.65H28.7Z" fill="url(#paint9_linear_6_45)"/>
<path fill-rule="evenodd" clip-rule="evenodd" d="M26.917 18.742C26.59 18.742 26.302 18.693 26.02 18.567L25.022 21.718C25.582 21.91 26.182 21.997 26.848 21.997C27.463 21.997 28.027 21.905 28.538 21.727L27.564 18.65C27.354 18.713 27.136 18.744 26.917 18.742Z" fill="url(#paint10_linear_6_45)"/>
<path fill-rule="evenodd" clip-rule="evenodd" d="M24.92 17.667L24.902 17.646L22.606 20.039L22.626 20.059C23.423 20.912 24.186 21.441 25.049 21.731L26.046 18.581C25.682 18.425 25.329 18.141 24.92 17.667Z" fill="url(#paint11_linear_6_45)"/>
<path fill-rule="evenodd" clip-rule="evenodd" d="M24.902 17.643C24.214 16.841 23.362 15.504 22.022 13.343L20.276 10.423L20.262 10.4L18.236 13.446L18.25 13.47L19.487 15.557C20.687 17.569 21.664 19.024 22.607 20.037L22.626 20.057L24.921 17.665C24.9146 17.6577 24.9083 17.6504 24.902 17.643Z" fill="url(#paint12_linear_6_45)"/>
<defs>
<linearGradient id="paint0_linear_6_45" x1="748.193" y1="1024.76" x2="230.7" y2="344.937" gradientUnits="userSpaceOnUse">
<stop offset="0.0006" stop-color="#0867DF"/>
<stop offset="0.4539" stop-color="#0668E1"/>
<stop offset="1" stop-color="#0064E0"/>
</linearGradient>
<linearGradient id="paint1_linear_6_45" x1="137.024" y1="420.772" x2="566.878" y2="93.645" gradientUnits="userSpaceOnUse">
<stop offset="0.1323" stop-color="#0064DF"/>
<stop offset="0.9988" stop-color="#0064E0"/>
</linearGradient>
<linearGradient id="paint2_linear_6_45" x1="193.916" y1="575.841" x2="369.191" y2="133.579" gradientUnits="userSpaceOnUse">
<stop offset="0.0147" stop-color="#0072EC"/>
<stop offset="0.6881" stop-color="#0064DF"/>
</linearGradient>
<linearGradient id="paint3_linear_6_45" x1="167.159" y1="356.829" x2="188.528" y2="72.1065" gradientUnits="userSpaceOnUse">
<stop offset="0.0731" stop-color="#007CF6"/>
<stop offset="0.9943" stop-color="#0072EC"/>
</linearGradient>
<linearGradient id="paint4_linear_6_45" x1="176.883" y1="137.2" x2="170.744" y2="91.4193" gradientUnits="userSpaceOnUse">
<stop offset="0.0731" stop-color="#007FF9"/>
<stop offset="1" stop-color="#007CF6"/>
</linearGradient>
<linearGradient id="paint5_linear_6_45" x1="150.296" y1="65.2438" x2="244.024" y2="264.503" gradientUnits="userSpaceOnUse">
<stop offset="0.0731" stop-color="#007FF9"/>
<stop offset="1" stop-color="#0082FB"/>
</linearGradient>
<linearGradient id="paint6_linear_6_45" x1="153.364" y1="219.076" x2="225.117" y2="119.619" gradientUnits="userSpaceOnUse">
<stop stop-color="#007FF8"/>
<stop offset="1" stop-color="#0082FB"/>
</linearGradient>
<linearGradient id="paint7_linear_6_45" x1="281.696" y1="69.8766" x2="532.975" y2="996.587" gradientUnits="userSpaceOnUse">
<stop stop-color="#0082FB"/>
<stop offset="0.9995" stop-color="#0081FA"/>
</linearGradient>
<linearGradient id="paint8_linear_6_45" x1="229.079" y1="39.1292" x2="81.6431" y2="337.808" gradientUnits="userSpaceOnUse">
<stop offset="0.0619" stop-color="#0081FA"/>
<stop offset="1" stop-color="#0080F9"/>
</linearGradient>
<linearGradient id="paint9_linear_6_45" x1="127.376" y1="260.091" x2="246.43" y2="178.82" gradientUnits="userSpaceOnUse">
<stop stop-color="#027AF3"/>
<stop offset="1" stop-color="#0080F9"/>
</linearGradient>
<linearGradient id="paint10_linear_6_45" x1="96.8644" y1="190.07" x2="313.728" y2="190.07" gradientUnits="userSpaceOnUse">
<stop stop-color="#0377EF"/>
<stop offset="0.9994" stop-color="#0279F1"/>
</linearGradient>
<linearGradient id="paint11_linear_6_45" x1="161.2" y1="161.838" x2="283.461" y2="233.96" gradientUnits="userSpaceOnUse">
<stop offset="0.0019" stop-color="#0471E9"/>
<stop offset="1" stop-color="#0377EF"/>
</linearGradient>
<linearGradient id="paint12_linear_6_45" x1="233.68" y1="200.826" x2="632.635" y2="703.717" gradientUnits="userSpaceOnUse">
<stop offset="0.2765" stop-color="#0867DF"/>
<stop offset="1" stop-color="#0471E9"/>
</linearGradient>
</defs>
</svg>
